<?xml version="1.0" standalone="no"?>
<!DOCTYPE svg PUBLIC "-//W3C//DTD SVG 20010904//EN"
 "http://www.w3.org/TR/2001/REC-SVG-20010904/DTD/svg10.dtd">
<svg version="1.0" xmlns="http://www.w3.org/2000/svg"
 width="96.000000pt" height="96.000000pt" viewBox="0 0 96.000000 96.000000"
 preserveAspectRatio="xMidYMid meet">

<g transform="translate(0.000000,96.000000) scale(0.100000,-0.100000)"
fill="#000000" stroke="none">
<path d="M431 926 c-13 -7 -30 -24 -37 -37 -18 -33 -17 -104 1 -139 15 -29 15
-30 -5 -30 -36 0 -56 -17 -100 -86 -66 -101 -92 -252 -50 -294 43 -43 86 -17
105 61 20 81 18 22 -5 -146 -25 -186 -25 -210 0 -235 49 -49 89 -15 115 98 10
45 21 82 25 82 4 0 14 -36 24 -81 24 -112 67 -148 116 -99 25 25 25 56 0 235
-23 162 -26 230 -5 146 19 -78 62 -104 105 -61 40 40 18 189 -41 280 -39 61
-43 96 -9 85 23 -7 36 11 21 29 -9 11 -6 23 9 50 21 34 20 56 -1 56 -5 0 -19
-16 -30 -35 -15 -25 -28 -35 -45 -35 -25 0 -34 -25 -12 -32 23 -8 -2 -25 -31
-20 -30 4 -30 5 -16 33 18 34 19 98 3 134 -22 48 -88 68 -137 41z m93 -52 c18
-7 22 -39 6 -49 -5 -3 -18 0 -30 7 -16 10 -24 10 -40 0 -12 -7 -25 -10 -30 -7
-14 9 -12 42 3 48 18 8 73 8 91 1z m110 -261 c48 -73 79 -184 57 -206 -17 -17
-30 3 -41 63 -11 58 -57 119 -79 106 -6 -4 -11 -32 -11 -62 l0 -54 -80 0 -80
0 0 54 c0 30 -5 58 -11 62 -23 14 -68 -47 -80 -108 -12 -60 -24 -77 -41 -60
-21 21 11 133 58 205 l44 67 110 0 110 0 44 -67z m-55 -353 c12 -89 19 -165
15 -171 -15 -26 -32 8 -64 132 -25 97 -39 134 -50 134 -11 0 -25 -37 -50 -134
-32 -124 -49 -158 -64 -132 -4 6 3 82 15 171 l22 160 77 0 77 0 22 -160z"/>
</g>
</svg>
