<?xml version="1.0" standalone="no"?>
<!DOCTYPE svg PUBLIC "-//W3C//DTD SVG 20010904//EN"
 "http://www.w3.org/TR/2001/REC-SVG-20010904/DTD/svg10.dtd">
<svg version="1.0" xmlns="http://www.w3.org/2000/svg"
 width="96.000000pt" height="96.000000pt" viewBox="0 0 96.000000 96.000000"
 preserveAspectRatio="xMidYMid meet">

<g transform="translate(0.000000,96.000000) scale(0.100000,-0.100000)"
fill="#000000" stroke="none">
<path d="M270 865 c-16 -19 -5 -49 16 -41 13 5 15 -3 12 -47 -3 -51 -4 -53
-48 -75 -35 -18 -55 -22 -90 -18 -101 13 -95 14 -98 -21 -3 -35 37 -89 89
-120 21 -12 29 -25 29 -45 0 -23 -5 -28 -37 -34 -21 -4 -56 -2 -81 5 -52 14
-62 9 -62 -30 0 -34 51 -96 104 -124 l36 -20 0 -87 c0 -136 -22 -128 340 -128
362 0 340 -8 340 128 l0 87 36 20 c53 28 104 90 104 124 0 39 -10 44 -62 30
-25 -7 -60 -9 -81 -5 -32 6 -37 11 -37 34 0 20 8 33 29 45 52 31 92 85 89 120
-3 35 3 34 -98 21 -35 -4 -55 0 -90 18 -44 22 -45 25 -48 74 -3 45 -1 52 15
50 24 -1 24 33 0 48 -22 14 -51 -3 -55 -33 -3 -20 -8 -21 -143 -21 -127 0
-139 2 -139 18 0 38 -46 56 -70 27z m352 -162 c2 -61 6 -78 18 -78 9 0 16 11
18 27 3 27 4 28 32 13 17 -9 50 -18 75 -21 52 -8 49 -18 -9 -45 -36 -16 -68
-19 -276 -19 -208 0 -240 3 -276 19 -58 27 -61 37 -9 45 25 3 58 12 75 21 28
15 29 14 32 -13 2 -16 9 -27 18 -27 12 0 16 17 18 78 l3 77 139 0 139 0 3 -77z
m-316 -163 c53 0 54 0 54 -30 l0 -30 -70 0 -70 0 0 36 c0 29 3 35 16 30 9 -3
40 -6 70 -6z m434 -25 l0 -35 -70 0 -70 0 0 30 c0 29 1 29 63 33 34 2 65 4 70
5 4 1 7 -14 7 -33z m-180 -5 l0 -30 -80 0 -80 0 0 30 0 30 80 0 80 0 0 -30z
m253 -84 c65 -13 64 -22 -6 -51 -54 -22 -600 -22 -654 0 -69 29 -71 38 -12 51
76 16 596 16 672 0z m-453 -186 l0 -81 -87 3 -88 3 -3 78 -3 77 91 0 90 0 0
-80z m200 60 c0 -18 -7 -20 -80 -20 -73 0 -80 2 -80 20 0 18 7 20 80 20 73 0
80 -2 80 -20z m218 -57 l-3 -78 -87 -3 -88 -3 0 81 0 80 90 0 91 0 -3 -77z
m-218 -43 l0 -40 -80 0 -80 0 0 40 0 40 80 0 80 0 0 -40z"/>
</g>
</svg>
