<svg xmlns="http://www.w3.org/2000/svg"  viewBox="0 0 50 50" width="100px" height="100px"><path d="M 25 2 C 12.317 2 2 12.318 2 25 C 2 37.682 12.317 48 25 48 C 37.683 48 48 37.682 48 25 C 48 12.318 37.683 2 25 2 z M 25 3.9863281 C 36.587 3.9863281 46.013672 13.413 46.013672 25 C 46.013672 36.587 36.588 46.013672 25 46.013672 C 13.413 46.013672 3.9863281 36.587 3.9863281 25 C 3.9863281 13.413 13.413 3.9863281 25 3.9863281 z M 25 6 C 24.405 6 23.818328 6.0368437 23.236328 6.0898438 C 23.260328 6.1358438 23.2845 6.1800938 23.3125 6.2460938 C 23.4635 6.5980938 23.109375 7.2480469 23.109375 7.2480469 C 23.109375 7.2480469 22.97625 6.4782656 22.40625 6.1972656 C 21.89425 6.2672656 21.386672 6.3509375 20.888672 6.4609375 C 20.256672 6.9019375 19.930875 7.6654219 20.796875 8.3574219 C 22.053875 9.3634219 22.006984 8.6091563 22.458984 8.9101562 C 22.911984 9.2121562 23.261453 9.964375 23.814453 9.109375 C 24.367453 8.254375 25.120141 8.2559844 24.869141 8.7089844 C 24.618141 9.1619844 24.065266 9.4609375 25.322266 9.4609375 L 27.130859 9.4609375 C 27.985859 9.4609375 28.742922 9.5105 29.044922 9.8125 C 29.346922 10.1145 29.498047 11.173828 29.498047 11.173828 C 29.498047 11.173828 30.852203 10.870781 31.908203 11.675781 C 32.964203 12.480781 33.269531 13.839844 33.269531 13.839844 C 33.269531 13.839844 30.953594 13.737359 31.808594 14.693359 C 32.663594 15.649359 32.414969 15.446828 32.917969 15.798828 C 33.420969 16.150828 33.872219 16.253125 34.324219 16.203125 C 34.777219 16.153125 34.675688 16.152688 35.429688 16.554688 C 36.183687 16.956688 37.038016 17.359203 37.541016 17.158203 C 38.044016 16.957203 38.648344 16.604156 39.402344 17.660156 C 40.156344 18.716156 40.207078 18.865234 39.705078 18.865234 C 39.202078 18.865234 39.051516 18.618094 39.353516 19.121094 C 39.655516 19.624094 39.856516 19.521609 39.353516 19.974609 C 38.850516 20.427609 39.426391 20.550344 39.275391 20.902344 C 39.124391 21.254344 38.949219 21.179688 38.949219 21.179688 C 38.949219 21.179688 39.049047 22.035719 38.873047 22.261719 C 38.697047 22.487719 38.121094 22.640625 38.121094 22.640625 C 38.121094 22.640625 38.194625 21.505859 37.515625 21.505859 C 36.836625 21.505859 36.613281 21.482422 36.613281 21.482422 C 36.613281 21.482422 37.693875 22.262531 38.171875 23.519531 C 38.649875 24.776531 38.926125 25.957672 39.328125 27.013672 C 39.730125 28.069672 40.658625 28.521094 41.765625 28.496094 C 42.871625 28.471094 43.099609 27.665719 43.099609 26.886719 C 43.099609 26.107719 42.973484 26.059594 42.646484 25.808594 C 42.319484 25.557594 42.017578 25.478516 42.017578 25.478516 C 42.017578 25.478516 42.596734 25.126469 43.552734 25.730469 C 43.743734 25.850469 43.8585 26.034187 43.9375 26.242188 C 43.9645 25.829187 44 25.42 44 25 C 44 14.523 35.476 6 25 6 z M 18.966797 6.9980469 C 18.704797 7.0860469 18.446453 7.1842031 18.189453 7.2832031 C 18.236453 7.3042031 18.284078 7.3266094 18.330078 7.3496094 C 18.531078 7.4506094 18.484375 7.953125 18.484375 7.953125 C 18.484375 7.953125 17.879125 7.6015625 17.578125 7.6015625 C 17.276125 7.6015625 17.226828 7.6538125 16.673828 8.2578125 C 16.119828 8.8618125 17.126641 9.0125 17.931641 9.0625 C 18.736641 9.1125 20.597656 9.4628906 20.597656 9.4628906 C 20.597656 9.4628906 19.995016 8.9604219 19.291016 8.3574219 C 18.783016 7.9224219 18.875797 7.3080469 18.966797 6.9980469 z M 15.316406 8.6835938 C 13.002406 10.062594 11.002031 11.910422 9.4570312 14.107422 C 9.6040313 14.114422 9.7809375 14.324922 9.8359375 14.544922 C 9.9369375 14.946922 10.187062 14.795312 10.539062 14.695312 C 10.891063 14.595313 11.293703 13.638938 11.595703 13.085938 C 11.897703 12.532937 12.698859 11.879781 13.755859 11.175781 C 14.811859 10.471781 18.183594 10.417969 18.183594 10.417969 C 18.183594 10.417969 17.380437 10.066844 16.273438 9.7148438 C 15.477438 9.4618437 15.335406 8.9515937 15.316406 8.6835938 z M 25.736328 12.785156 C 24.862328 12.858156 24.328125 13.6875 24.328125 13.6875 C 24.328125 13.6875 25.311781 13.652344 25.675781 13.652344 C 26.040781 13.652344 26.618656 13.928578 27.347656 14.267578 C 28.076656 14.606578 28.957031 14.417969 28.957031 14.417969 C 28.957031 14.417969 28.430391 14.039609 27.650391 13.599609 C 26.870391 13.159609 26.893109 12.823156 25.912109 12.785156 C 25.851109 12.783156 25.794328 12.780156 25.736328 12.785156 z M 9.2597656 14.371094 C 7.6017656 16.819094 6.5104844 19.677906 6.1464844 22.753906 C 6.1184844 23.017906 6.0961719 23.269719 6.0761719 23.511719 C 6.0371719 24.004719 6.0019531 24.498 6.0019531 25 C 6.0019531 29.997 7.9541406 34.534687 11.119141 37.929688 C 11.918141 38.669688 12.696641 39.232109 13.306641 39.537109 C 15.016641 40.392109 17.126719 40.743188 18.886719 40.492188 C 20.646719 40.241188 21.602734 39.838422 21.552734 38.732422 C 21.501734 37.626422 19.841719 36.618359 18.886719 36.568359 C 17.930719 36.518359 16.773438 36.017578 16.773438 36.017578 C 16.773438 36.017578 16.524609 36.367531 16.474609 36.769531 C 16.424609 37.171531 16.221359 37.373172 15.818359 37.826172 C 15.416359 38.279172 15.167922 37.874047 15.419922 37.623047 C 15.670922 37.372047 15.718359 37.172094 15.568359 36.871094 C 15.417359 36.569094 15.316625 36.620453 15.265625 35.564453 C 15.215625 34.508453 14.363719 33.95525 14.011719 34.15625 C 13.659719 34.35725 13.706469 34.404594 13.605469 35.058594 C 13.504469 35.712594 13.355953 36.320656 12.751953 36.722656 C 12.147953 37.124656 11.291891 36.969797 10.587891 36.466797 C 9.8838906 35.963797 9.833625 35.263406 10.890625 35.816406 C 11.946625 36.369406 12.149828 35.363203 12.048828 34.408203 C 11.947828 33.453203 12.048828 31.890625 12.048828 31.890625 C 12.048828 31.890625 11.140891 30.483906 10.587891 29.628906 C 10.034891 28.773906 9.53125 27.21875 9.53125 27.21875 C 9.53125 27.21875 8.7792187 28.220703 7.8242188 28.220703 C 6.8692187 28.220703 6.2148438 27.416016 6.2148438 27.416016 L 7.0195312 27.21875 C 7.4215313 27.11775 7.3206562 26.862375 7.7226562 26.359375 C 8.1246563 25.856375 8.2246094 24.099453 8.2246094 22.439453 C 8.2246094 20.780453 8.5788594 18.464547 8.8808594 17.810547 C 9.1828594 17.156547 10.037109 16.203125 10.037109 16.203125 C 10.037109 16.203125 9.2324219 15.547578 9.2324219 14.642578 C 9.2324219 14.528578 9.2457656 14.446094 9.2597656 14.371094 z M 27.322266 16.560547 C 25.739266 16.572547 24.972656 17.861328 24.972656 17.861328 C 24.972656 17.861328 26.659453 18.414406 27.564453 18.816406 C 28.469453 19.218406 28.844031 19.897469 30.957031 21.355469 C 33.070031 22.813469 35.005859 22.865234 35.005859 22.865234 L 34.929688 21.105469 C 34.929688 21.105469 34.351187 21.003438 32.742188 20.023438 C 31.133188 19.043437 31.45775 18.065203 28.84375 16.908203 C 28.27175 16.655203 27.765266 16.557547 27.322266 16.560547 z M 17.904297 17.361328 C 17.904297 17.361328 17.804469 18.389187 17.855469 18.992188 C 17.906469 19.595188 18.084375 19.950953 18.234375 20.001953 C 18.385375 20.051953 18.660594 20.201297 18.308594 20.779297 C 17.956594 21.357297 17.753125 21.7325 17.828125 22.5625 C 17.903125 23.3925 18.585313 25.329594 20.320312 25.933594 C 22.055312 26.536594 24.192766 26.563891 27.259766 26.337891 C 30.327766 26.111891 32.565906 25.858063 34.753906 26.914062 C 36.941906 27.970063 38.574516 30.159797 39.228516 31.341797 C 39.882516 32.523797 40.158812 34.485234 40.007812 35.490234 C 39.925812 36.038234 39.762859 36.654422 39.630859 37.107422 C 41.338859 35.046422 42.600313 32.612031 43.320312 29.957031 C 43.143312 30.462031 42.679625 31.292234 41.515625 31.240234 C 39.856625 31.165234 38.497703 28.875141 38.220703 27.869141 C 37.943703 26.863141 37.216797 23.671875 37.216797 23.671875 C 37.216797 23.671875 36.589422 24.651953 35.482422 24.626953 C 34.376422 24.601953 34.450141 24.300219 33.494141 24.199219 C 32.538141 24.098219 32.084172 24.499625 30.826172 23.015625 C 29.569172 21.531625 27.758859 20.252172 27.130859 20.076172 C 26.502859 19.900172 25.122062 18.766047 23.664062 19.873047 C 22.206063 20.979047 21.148312 20.904297 20.570312 20.904297 C 19.992313 20.904297 18.308031 20.428703 18.207031 19.095703 C 18.106031 17.762703 17.904297 17.361328 17.904297 17.361328 z M 34.511719 17.603516 C 34.406719 17.606516 34.291875 17.622156 34.171875 17.660156 C 33.216875 17.962156 33.898438 18.742187 33.898438 18.742188 C 33.898438 18.742188 34.173172 18.565453 34.576172 18.439453 C 34.978172 18.314453 35.632813 18.289062 35.632812 18.289062 C 35.632812 18.289062 35.247719 17.578516 34.511719 17.603516 z M 36.148438 22.029297 C 35.994437 22.041297 35.859109 22.115234 35.787109 22.240234 C 35.656109 22.469234 35.783266 22.787125 36.072266 22.953125 C 36.361266 23.118125 36.702984 23.068844 36.833984 22.839844 C 36.964984 22.610844 36.837828 22.286094 36.548828 22.121094 C 36.440828 22.059094 36.323844 22.032297 36.214844 22.029297 C 36.191844 22.028297 36.170438 22.027297 36.148438 22.029297 z M 43.705078 28.228516 C 43.578078 28.479516 43.429344 28.685781 43.277344 28.800781 C 42.648344 29.278781 41.943797 29.505859 41.591797 29.505859 C 41.239797 29.505859 40.257812 29.201172 40.257812 29.201172 C 40.257812 29.201172 40.687359 30.231641 41.693359 30.306641 C 42.660359 30.379641 43.363016 29.646844 43.416016 29.589844 C 43.528016 29.141844 43.625078 28.688516 43.705078 28.228516 z"/></svg>